<svg id="レイヤー_1" data-name="レイヤー 1" xmlns="http://www.w3.org/2000/svg" xmlns:xlink="http://www.w3.org/1999/xlink" viewBox="0 0 500 600"><defs><style>.cls-1,.cls-10,.cls-11,.cls-15,.cls-16,.cls-17,.cls-18,.cls-19,.cls-20,.cls-3{fill:none;}.cls-2{fill:#eeeeef;}.cls-15,.cls-16,.cls-17,.cls-18,.cls-19,.cls-3{stroke:#231815;}.cls-15,.cls-16,.cls-17,.cls-18,.cls-19,.cls-20,.cls-3{stroke-width:0.28px;}.cls-4{font-size:12px;}.cls-12,.cls-14,.cls-4,.cls-7,.cls-9{fill:#231815;}.cls-12,.cls-4,.cls-7,.cls-9{font-family:MS-Gothic, MS Gothic;}.cls-5{letter-spacing:0.25em;}.cls-6{clip-path:url(#clip-path);}.cls-7{font-size:10px;}.cls-8{fill:#fff;}.cls-9{font-size:18px;}.cls-10{stroke:#f09dc1;}.cls-10,.cls-11{stroke-miterlimit:10;stroke-width:17.5px;}.cls-11{stroke:#6f6;}.cls-12,.cls-14{font-size:14px;}.cls-13{letter-spacing:2.07em;}.cls-14{font-family:KozGoPr6N-Regular-90ms-RKSJ-H, Kozuka Gothic Pr6N;}.cls-15{stroke-dasharray:10 4;}.cls-16{stroke-dasharray:9.95 3.95;}.cls-17{stroke-dasharray:10.31 4.31;}.cls-18{stroke-dasharray:6.24 0.24;}.cls-19{stroke-dasharray:6.17 0.17;}.cls-20{stroke:lime;}</style><clipPath id="clip-path"><rect class="cls-1" x="45" y="33.01" width="405.95" height="521.99"/></clipPath></defs><title>A4_7</title><rect class="cls-2" x="53.8" y="66.91" width="387.35" height="321.3"/><rect class="cls-3" x="53.8" y="66.91" width="387.35" height="321.3"/><text class="cls-4" transform="translate(61.8 82.82)">プログラ<tspan class="cls-5" x="48" y="0">ム</tspan><tspan x="63" y="0">A4_5</tspan></text><rect class="cls-2" x="54.5" y="424.06" width="387.35" height="130.8"/><g class="cls-6"><rect class="cls-3" x="54.5" y="424.06" width="387.35" height="130.8"/></g><text class="cls-7" transform="translate(62.5 439.8)">A4_<tspan class="cls-5" x="15" y="0">5</tspan><tspan x="22.5" y="0">の実行結果</tspan></text><rect class="cls-8" x="91.8" y="118.27" width="293.15" height="121.59"/><text class="cls-9" transform="translate(54 410.63)">②実行結果</text><text class="cls-9" transform="translate(54 55.47)">①プログラム</text><text class="cls-4" transform="translate(62.5 463.62)">&gt; java A4_5</text><text class="cls-4" transform="translate(62.5 481.62)">display の a = ?</text><text class="cls-4" transform="translate(62.5 499.62)">mai<tspan class="cls-5" x="18" y="0">n</tspan><tspan x="27" y="0">の a = ?</tspan></text><rect class="cls-8" x="91.8" y="244.13" width="311.2" height="102.9"/><line class="cls-10" x1="156.2" y1="105.77" x2="184.2" y2="105.77"/><line class="cls-11" x1="234.2" y1="126.77" x2="262.2" y2="126.77"/><line class="cls-11" x1="137.2" y1="168.77" x2="187" y2="168.77"/><line class="cls-11" x1="234.2" y1="252.77" x2="283" y2="252.77"/><text class="cls-12" transform="translate(65.2 111.09)">public class </text><text class="cls-12" transform="translate(156.2 111.09)">A4_5</text><text class="cls-12" transform="translate(184.2 111.09)">{</text><text class="cls-12" transform="translate(65.2 132.09)"> </text><text class="cls-12" transform="translate(101.19 132.09)">public static void </text><text class="cls-12" transform="translate(234.19 132.09)">main</text><text class="cls-12" transform="translate(262.19 132.09)">(String[] args){</text><text class="cls-12" transform="translate(65.2 153.09)"><tspan class="cls-13"> </tspan><tspan x="35.99" y="0"> </tspan></text><text class="cls-12" transform="translate(137.19 153.09)">int </text><text class="cls-14" transform="translate(165.2 153.38)">a</text><text class="cls-12" transform="translate(172.44 153.09)"><tspan xml:space="preserve"> = 0;</tspan></text><text class="cls-12" transform="translate(65.2 174.09)"><tspan class="cls-13"> </tspan><tspan x="35.99" y="0"> </tspan></text><text class="cls-12" transform="translate(137.19 174.09)">display();</text><text class="cls-12" transform="translate(65.2 195.09)"><tspan class="cls-13"> </tspan><tspan x="35.99" y="0"> </tspan></text><text class="cls-12" transform="translate(137.19 195.09)">System.out.print(”main の a = ”);</text><text class="cls-12" transform="translate(65.21 216.09)"><tspan class="cls-13"> </tspan><tspan x="35.99" y="0"> </tspan></text><text class="cls-12" transform="translate(137.19 216.09)">System.out.println(</text><text class="cls-14" transform="translate(270.21 216.38)">a</text><text class="cls-12" transform="translate(277.44 216.09)">);</text><text class="cls-12" transform="translate(65.21 237.09)"> </text><text class="cls-12" transform="translate(101.2 237.09)">}</text><text class="cls-12" transform="translate(65.21 258.09)"> </text><text class="cls-12" transform="translate(101.2 258.09)">public static void display(){ </text><text class="cls-12" transform="translate(65.21 279.09)"><tspan class="cls-13"> </tspan><tspan x="35.99" y="0"> </tspan></text><text class="cls-12" transform="translate(137.19 279.09)">int </text><text class="cls-14" transform="translate(165.21 279.38)">a</text><text class="cls-12" transform="translate(172.44 279.09)"><tspan xml:space="preserve"> = 1;</tspan></text><text class="cls-12" transform="translate(65.21 300.09)"><tspan class="cls-13"> </tspan><tspan x="35.99" y="0"> </tspan></text><text class="cls-12" transform="translate(137.19 300.09)">System.out.print(”display の a = ”);</text><text class="cls-12" transform="translate(65.21 321.09)"><tspan class="cls-13"> </tspan><tspan x="35.99" y="0"> </tspan></text><text class="cls-12" transform="translate(137.19 321.09)">System.out.println(a);</text><text class="cls-12" transform="translate(65.21 342.09)"> </text><text class="cls-12" transform="translate(101.2 342.09)">}</text><text class="cls-12" transform="translate(65.21 363.09)">}</text><text class="cls-7" transform="translate(217.35 437.8)">このコマンド<tspan class="cls-5" x="60" y="0">で</tspan><tspan x="72.5" y="0">mai</tspan><tspan class="cls-5" x="87.5" y="0">n</tspan><tspan x="95" y="0">の振る舞いか</tspan></text><text class="cls-7" transform="translate(217.35 452.8)">ら実行するのがルールです</text><line class="cls-15" x1="135.88" y1="459.78" x2="411.83" y2="459.78"/><line class="cls-16" x1="411.33" y1="459.28" x2="411.33" y2="143.63"/><line class="cls-17" x1="385.91" y1="144.13" x2="410.83" y2="144.13"/><line class="cls-18" x1="384.35" y1="144.77" x2="393.67" y2="153.44"/><line class="cls-19" x1="384.36" y1="143.54" x2="393.31" y2="134.81"/><line class="cls-20" x1="74.84" y1="168.23" x2="137.26" y2="168.23"/><line class="cls-20" x1="74.84" y1="255.37" x2="90.45" y2="255.37"/><line class="cls-20" x1="75.34" y1="255.37" x2="75.34" y2="167.73"/><line class="cls-20" x1="86.19" y1="250.64" x2="91.46" y2="255.56"/><line class="cls-20" x1="91.43" y1="254.85" x2="86.52" y2="260.12"/></svg>