<svg id="レイヤー_1" data-name="レイヤー 1" xmlns="http://www.w3.org/2000/svg" viewBox="0 0 500 600"><defs><style>.cls-1{fill:#eeeeef;}.cls-13,.cls-14,.cls-2,.cls-8,.cls-9{fill:none;}.cls-13,.cls-2{stroke:#231815;}.cls-13,.cls-14,.cls-2{stroke-width:0.28px;}.cls-3{font-size:12px;}.cls-10,.cls-12,.cls-3,.cls-5,.cls-7{fill:#231815;}.cls-10,.cls-3,.cls-5,.cls-7{font-family:MS-Gothic, MS Gothic;}.cls-4{letter-spacing:0.25em;}.cls-5{font-size:10px;}.cls-6{fill:#fff;}.cls-7{font-size:18px;}.cls-8{stroke:#f09dc1;}.cls-8,.cls-9{stroke-miterlimit:10;stroke-width:17.5px;}.cls-9{stroke:#6f6;}.cls-10,.cls-12{font-size:14px;}.cls-11{letter-spacing:2.07em;}.cls-12{font-family:KozGoPr6N-Regular-90ms-RKSJ-H, Kozuka Gothic Pr6N;}.cls-13{stroke-dasharray:10.09 4.09;}.cls-14{stroke:lime;}</style></defs><title>A4_8</title><rect class="cls-1" x="64.5" y="56.2" width="387.35" height="290.4"/><rect class="cls-2" x="64.5" y="56.2" width="387.35" height="290.4"/><text class="cls-3" transform="translate(72.5 72.11)">プログラ<tspan class="cls-4" x="48" y="0">ム</tspan><tspan x="63" y="0">A4_6</tspan></text><rect class="cls-1" x="64.5" y="374.5" width="387.35" height="169.65"/><rect class="cls-2" x="64.5" y="374.5" width="387.35" height="169.65"/><text class="cls-5" transform="translate(73.2 392.24)">A4_<tspan class="cls-4" x="15" y="0">5</tspan><tspan x="22.5" y="0">の実行結果</tspan></text><rect class="cls-6" x="102.5" y="107.42" width="293.15" height="121.89"/><text class="cls-7" transform="translate(64 363.12)">②実行結果とコンパイル結果</text><text class="cls-7" transform="translate(64.7 44.77)">①プログラム</text><rect class="cls-6" x="102.5" y="233.7" width="312.5" height="80.29"/><line class="cls-8" x1="166.9" y1="95.06" x2="194.9" y2="95.06"/><line class="cls-9" x1="244.9" y1="116.06" x2="272.9" y2="116.06"/><line class="cls-9" x1="147.9" y1="158.06" x2="194" y2="158.06"/><line class="cls-9" x1="244.9" y1="242.06" x2="292" y2="242.06"/><text class="cls-10" transform="translate(75.9 100.38)">public class </text><text class="cls-10" transform="translate(166.9 100.38)">A4_6</text><text class="cls-10" transform="translate(194.9 100.38)">{</text><text class="cls-10" transform="translate(75.9 121.38)"> </text><text class="cls-10" transform="translate(111.89 121.38)">public static void </text><text class="cls-10" transform="translate(244.89 121.38)">main</text><text class="cls-10" transform="translate(272.89 121.38)">(String[] args){</text><text class="cls-10" transform="translate(75.9 142.38)"><tspan class="cls-11"> </tspan><tspan x="35.99" y="0"> </tspan></text><text class="cls-10" transform="translate(147.89 142.38)">int </text><text class="cls-12" transform="translate(175.9 142.68)">a</text><text class="cls-10" transform="translate(183.14 142.38)"><tspan xml:space="preserve"> = 0;</tspan></text><text class="cls-10" transform="translate(75.9 163.38)"><tspan class="cls-11"> </tspan><tspan x="35.99" y="0"> </tspan></text><text class="cls-10" transform="translate(147.89 163.38)">display();</text><text class="cls-10" transform="translate(75.9 184.38)"><tspan class="cls-11"> </tspan><tspan x="35.99" y="0"> </tspan></text><text class="cls-10" transform="translate(147.89 184.38)">System.out.print(”main の a = ”);</text><text class="cls-10" transform="translate(75.9 205.38)"><tspan class="cls-11"> </tspan><tspan x="35.99" y="0"> </tspan></text><text class="cls-10" transform="translate(147.89 205.38)">System.out.println(</text><text class="cls-12" transform="translate(280.91 205.68)">a</text><text class="cls-10" transform="translate(288.15 205.38)">);</text><text class="cls-10" transform="translate(75.9 226.38)"> </text><text class="cls-10" transform="translate(111.9 226.38)">}</text><text class="cls-10" transform="translate(75.9 247.38)"> </text><text class="cls-10" transform="translate(111.9 247.38)">public static void display(){</text><text class="cls-10" transform="translate(75.9 268.38)"><tspan class="cls-11"> </tspan><tspan x="35.99" y="0"> </tspan></text><text class="cls-10" transform="translate(147.89 268.38)">System.out.print(”display の a = ”);</text><text class="cls-10" transform="translate(75.9 289.38)"><tspan class="cls-11"> </tspan><tspan x="35.99" y="0"> </tspan></text><text class="cls-10" transform="translate(147.89 289.38)">System.out.println(a);</text><text class="cls-10" transform="translate(75.9 310.38)"> </text><text class="cls-10" transform="translate(111.9 310.38)">}</text><text class="cls-10" transform="translate(75.9 331.38)">}</text><text class="cls-3" transform="translate(72.5 415.21)">&gt; java A4_5</text><text class="cls-3" transform="translate(72.5 433.21)">display の a = 1</text><text class="cls-3" transform="translate(72.5 451.21)">mai<tspan class="cls-4" x="18" y="0">n</tspan><tspan x="27" y="0">の a = 0</tspan></text><text class="cls-5" transform="translate(192.85 391.39)">A4_<tspan class="cls-4" x="15" y="0">6</tspan><tspan x="22.5" y="0">のコンパイル結果</tspan></text><text class="cls-3" transform="translate(192.15 414.36)">&gt; javac A4_6.java</text><text class="cls-3" transform="translate(189.05 437.32)">A4_6.java:10: シンボルを見つけられません。</text><text class="cls-3" transform="translate(189.05 455.32)">シンボ<tspan class="cls-4" x="36" y="0">ル</tspan><tspan x="51" y="0">: 変数 a</tspan></text><text class="cls-3" transform="translate(189.05 473.32)"><tspan xml:space="preserve">場所    : A4_6 の クラス</tspan></text><text class="cls-3" transform="translate(189.05 491.32)"><tspan xml:space="preserve">                System.out.println(a);</tspan></text><text class="cls-3" transform="translate(189.05 509.32)"><tspan xml:space="preserve">                                   ^</tspan></text><text class="cls-3" transform="translate(189.05 527.32)">エラー 1 個</text><line class="cls-13" x1="176.2" y1="532.75" x2="176.2" y2="380.8"/><line class="cls-14" x1="85.5" y1="157.63" x2="147.92" y2="157.63"/><line class="cls-14" x1="85.5" y1="244.77" x2="101.12" y2="244.77"/><line class="cls-14" x1="86" y1="244.77" x2="86" y2="157.13"/><line class="cls-14" x1="96.86" y1="240.04" x2="102.12" y2="244.96"/><line class="cls-14" x1="102.1" y1="244.25" x2="97.18" y2="249.52"/></svg>