<svg id="レイヤー_1" data-name="レイヤー 1" xmlns="http://www.w3.org/2000/svg" xmlns:xlink="http://www.w3.org/1999/xlink" viewBox="0 0 500 600"><defs><style>.cls-1,.cls-10,.cls-11,.cls-15,.cls-3{fill:none;}.cls-2{fill:#eeeeef;}.cls-15,.cls-3{stroke:#231815;}.cls-3{stroke-width:0.28px;}.cls-16,.cls-4{font-size:12px;}.cls-12,.cls-14,.cls-16,.cls-4,.cls-7,.cls-9{fill:#231815;}.cls-12,.cls-4,.cls-7,.cls-9{font-family:MS-Gothic, MS Gothic;}.cls-5{letter-spacing:0.25em;}.cls-6{clip-path:url(#clip-path);}.cls-7{font-size:10px;}.cls-8{fill:#fff;}.cls-9{font-size:18px;}.cls-10{stroke:#f09dc1;}.cls-10,.cls-11{stroke-miterlimit:10;stroke-width:17.5px;}.cls-11{stroke:#6f6;}.cls-12,.cls-14{font-size:14px;}.cls-13{letter-spacing:2.07em;}.cls-14,.cls-16{font-family:KozGoPr6N-Regular-90ms-RKSJ-H, Kozuka Gothic Pr6N;}.cls-15{stroke-width:0.25px;}</style><clipPath id="clip-path"><rect class="cls-1" x="47" y="29.01" width="405.95" height="521.99"/></clipPath></defs><title>A4_9</title><rect class="cls-2" x="55.8" y="62.91" width="387.35" height="321.3"/><rect class="cls-3" x="55.8" y="62.91" width="387.35" height="321.3"/><text class="cls-4" transform="translate(63.8 78.82)">プログラ<tspan class="cls-5" x="48" y="0">ム</tspan><tspan x="63" y="0">A4_7</tspan></text><rect class="cls-2" x="56.5" y="420.06" width="387.35" height="130.8"/><g class="cls-6"><rect class="cls-3" x="56.5" y="420.06" width="387.35" height="130.8"/></g><text class="cls-7" transform="translate(64.5 435.8)">A4_<tspan class="cls-5" x="15" y="0">7</tspan><tspan x="22.5" y="0">の実行結果</tspan></text><rect class="cls-8" x="93.8" y="114.13" width="296.85" height="166.06"/><text class="cls-9" transform="translate(56 406.63)">②実行結果</text><text class="cls-9" transform="translate(56 51.47)">①プログラム</text><text class="cls-4" transform="translate(64.5 459.62)">&gt; java A4_7</text><text class="cls-4" transform="translate(64.5 477.62)">合計：55</text><line class="cls-10" x1="158.2" y1="101.77" x2="186.2" y2="101.77"/><line class="cls-11" x1="236.2" y1="122.77" x2="264.2" y2="122.77"/><text class="cls-12" transform="translate(67.2 107.09)">public class </text><text class="cls-12" transform="translate(158.2 107.09)">A4_7</text><text class="cls-12" transform="translate(186.2 107.09)">{</text><text class="cls-12" transform="translate(67.2 128.09)"> </text><text class="cls-12" transform="translate(103.19 128.09)">public static void </text><text class="cls-12" transform="translate(236.19 128.09)">main</text><text class="cls-12" transform="translate(264.19 128.09)">(String[] args){</text><text class="cls-12" transform="translate(67.2 149.09)"><tspan class="cls-13"> </tspan><tspan x="35.99" y="0"> </tspan></text><text class="cls-12" transform="translate(139.19 149.09)">int </text><text class="cls-14" transform="translate(167.2 149.38)">sum</text><text class="cls-12" transform="translate(194.05 149.09)"><tspan xml:space="preserve"> = 0;</tspan></text><text class="cls-12" transform="translate(67.2 170.09)"><tspan class="cls-13"> </tspan><tspan x="35.99" y="0"> </tspan></text><text class="cls-12" transform="translate(139.19 170.09)">for(int </text><text class="cls-14" transform="translate(195.2 170.38)">i</text><text class="cls-12" transform="translate(198.67 170.09)"><tspan xml:space="preserve"> = 0; </tspan></text><text class="cls-14" transform="translate(240.67 170.38)">i</text><text class="cls-12" transform="translate(244.15 170.09)"><tspan xml:space="preserve"> &lt; 10; </tspan></text><text class="cls-14" transform="translate(293.15 170.38)">i</text><text class="cls-12" transform="translate(296.62 170.09)">++){</text><text class="cls-12" transform="translate(67.2 191.09)"><tspan class="cls-13" xml:space="preserve">  </tspan><tspan x="71.99" y="0"> </tspan></text><text class="cls-14" transform="translate(175.2 191.38)">sum</text><text class="cls-12" transform="translate(202.05 191.09)"><tspan xml:space="preserve"> = </tspan></text><text class="cls-14" transform="translate(223.05 191.38)">sum</text><text class="cls-12" transform="translate(249.9 191.09)"><tspan xml:space="preserve"> + (</tspan></text><text class="cls-14" transform="translate(277.9 191.38)">i</text><text class="cls-12" transform="translate(281.37 191.09)"><tspan xml:space="preserve"> + 1);</tspan></text><text class="cls-12" transform="translate(67.2 212.09)"><tspan class="cls-13"> </tspan><tspan x="35.99" y="0"> </tspan></text><text class="cls-12" transform="translate(139.19 212.09)">}</text><text class="cls-12" transform="translate(67.2 233.09)"><tspan class="cls-13"> </tspan><tspan x="35.99" y="0"> </tspan></text><text class="cls-12" transform="translate(139.2 233.09)">System.out.print(<tspan class="cls-5" x="119" y="0">&quot;</tspan><tspan x="129.5" y="0">合計：&quot;);</tspan></text><text class="cls-12" transform="translate(67.2 254.09)"><tspan class="cls-13"> </tspan><tspan x="35.99" y="0"> </tspan></text><text class="cls-12" transform="translate(139.19 254.09)">System.out.println(</text><text class="cls-14" transform="translate(272.2 254.38)">sum</text><text class="cls-12" transform="translate(299.05 254.09)">);</text><text class="cls-12" transform="translate(67.2 275.09)"> </text><text class="cls-12" transform="translate(103.19 275.09)">}</text><text class="cls-12" transform="translate(67.2 296.09)">}</text><rect class="cls-3" x="115.3" y="136.61" width="268.85" height="125.15"/><polygon class="cls-8" points="262.21 338.43 241.79 338.48 218.97 338.33 218.97 310.77 260.01 310.72 315.13 310.72 272.74 262.36 341.79 310.72 382.52 310.77 382.77 338.33 341.79 338.33 262.21 338.43"/><polygon class="cls-15" points="262.21 338.43 241.79 338.48 218.97 338.33 218.97 310.77 260.01 310.72 315.13 310.72 272.74 262.36 341.79 310.72 382.52 310.77 382.77 338.33 341.79 338.33 262.21 338.43"/><text class="cls-4" transform="translate(240.6 326.47)">変数</text><text class="cls-16" transform="translate(267.6 326.72)">sum</text><text class="cls-4" transform="translate(293.62 326.47)">のスコープ</text><rect class="cls-3" x="121" y="157.86" width="239.95" height="61.35"/><polygon class="cls-8" points="356.44 102.12 316.76 158.69 341.17 102.17 324.1 102.02 324.1 74.43 354.79 74.38 415.88 74.38 446.32 74.43 446.52 102.02 415.88 102.02 356.44 102.12"/><polygon class="cls-15" points="356.44 102.12 316.76 158.69 341.17 102.17 324.1 102.02 324.1 74.43 354.79 74.38 415.88 74.38 446.32 74.43 446.52 102.02 415.88 102.02 356.44 102.12"/><text class="cls-4" transform="translate(343.45 90.72)">変数</text><text class="cls-16" transform="translate(370.45 90.97)">i</text><text class="cls-4" transform="translate(376.43 90.72)">のスコープ</text></svg>